#!OML:ASF F:\VICON\USERDATA\INSTALL\rory3\rory3.ASF
:FULLY-SPECIFIED
:DEGREES
882
root 0.292976 17.8121 0.975762 -2.56088 1.76397 0.578416
lowerback 9.76773 -1.98573 -2.23921
upperback 0.173814 -2.77913 2.15768
thorax -5.08231 -1.29243 3.90353
lowerneck -16.3307 -2.64426 -2.22781
upperneck 22.1218 -2.89519 -0.869721
head 9.73088 -1.63682 -0.310627
rclavicle -6.55989e-015 7.15625e-015
rhumerus -37.8631 -33.4159 -67.1032
rradius 18.1605
rwrist 12.9808
rhand -19.0348 22.2446
rfingers 7.12502
rthumb 7.27154 -7.61045
lclavicle -6.55989e-015 7.15625e-015
lhumerus -22.3944 -0.0627112 80.9789
lradius 33.053
lwrist 7.7865
lhand -31.486 17.7457
lfingers 7.12502
lthumb -4.75241 47.6724
rfemur -27.2632 6.40105 20.4452
rtibia 26.622
rfoot -5.41606 -7.32273
rtoes -4.74118
lfemur 17.0031 -6.88754 -25.8451
ltibia 24.7196
lfoot -9.17158 -5.25657
ltoes -18.4106
883
root 0.276552 17.8277 1.2018 -2.70284 1.53068 0.546121
lowerback 9.67254 -1.93878 -2.15865
upperback 0.132716 -2.7073 2.14
thorax -5.08239 -1.25866 3.82662
lowerneck -16.179 -2.5846 -2.00148
upperneck 22.2536 -2.79574 -1.2006
head 9.73932 -1.61098 -0.44936
rclavicle 1.85615e-014 1.43125e-014
rhumerus -38.5017 -34.0863 -66.2631
rradius 17.8622
rwrist 13.6062
rhand -18.7674 22.6528
rfingers 7.12502
rthumb 7.52965 -7.19314
lclavicle 1.85615e-014 1.43125e-014
lhumerus -22.8659 0.183583 81.0335
lradius 32.9214
lwrist 7.88345
lhand -31.806 18.1367
lfingers 7.12502
lthumb -5.06138 48.0563
rfemur -26.7486 6.30824 20.686
rtibia 27.1125
rfoot -4.17624 -5.90728
rtoes -4.56905
lfemur 16.6157 -6.64604 -25.8119
ltibia 26.9817
lfoot -7.60034 -5.94633
ltoes -20.6145
884
root 0.256929 17.8429 1.42671 -2.70353 1.3306 0.292988
lowerback 9.32121 -1.87383 -1.81536
upperback 0.165562 -2.57897 2.15469
thorax -4.87515 -1.20825 3.61349
lowerneck -16.3506 -2.58123 -1.87537
upperneck 22.5574 -2.77823 -1.36614
head 9.87462 -1.61277 -0.532036
rclavicle 1.40392e-014 4.77083e-015
rhumerus -39.1843 -35.522 -65.06
rradius 17.482
rwrist 15.1432
rhand -18.654 23.3788
rfingers 7.12502
rthumb 7.6391 -6.4632
lclavicle 1.40392e-014 4.77083e-015
lhumerus -23.2825 0.327109 81.143
lradius 33.0254
lwrist 7.79574
lhand -31.8071 20.0955
lfingers 7.12502
lthumb -5.06245 50.015
rfemur -26.384 6.00445 21.2518
rtibia 27.7693
rfoot -3.44586 -4.66178
rtoes -2.17723
lfemur 15.8988 -6.27125 -25.3219
ltibia 29.2668
lfoot -5.36622 -7.09254
ltoes -20.5491
885
root 0.23227 17.8583 1.63541 -2.73945 1.28581 0.135
lowerback 9.16324 -1.83567 -1.64016
upperback 0.20248 -2.50861 2.15342
thorax -4.7605 -1.18019 3.49584
lowerneck -16.1207 -2.65427 -1.91654
upperneck 22.3634 -2.89964 -1.27279
head 9.76483 -1.66078 -0.502573
rclavicle 9.88954e-015 1.43125e-014
rhumerus -39.5866 -37.0954 -64.0448
rradius 17.014
rwrist 16.6419
rhand -18.575 23.4859
rfingers 7.12502
rthumb 7.71538 -6.35337
lclavicle 9.88954e-015 1.43125e-014
lhumerus -23.6058 0.657008 81.1717
lradius 32.8287
lwrist 7.77484
lhand -31.491 19.4685
lfingers 7.12502
lthumb -4.75723 49.3951
rfemur -26.0219 5.66774 21.7241
rtibia 28.4941
rfoot -3.82835 -4.16
rtoes -0.296066
lfemur 14.9705 -5.74608 -24.7713
ltibia 31.5407
lfoot -3.20174 -8.64834
ltoes -22.3292
886
root 0.204858 17.8805 1.84788 -2.84726 1.20114 -0.0666247
lowerback 9.25099 -1.81923 -1.52955
upperback 0.154998 -2.4706 2.24416
thorax -4.86282 -1.1605 3.52923
lowerneck -16.0743 -2.63517 -2.05161
upperneck 22.3109 -2.86701 -1.156
head 9.74184 -1.64346 -0.433917
rclavicle -5.94366e-014 2.22639e-014
rhumerus -39.8731 -37.5369 -63.5257
rradius 16.8421
rwrist 17.3571
rhand -18.7968 23.4926
rfingers 7.12502
rthumb 7.50126 -6.35436
lclavicle -5.94366e-014 2.22639e-014
lhumerus -24.2931 1.30052 81.2254
lradius 32.636
lwrist 7.49088
lhand -31.6488 15.5712
lfingers 7.12502
lthumb -4.90959 45.4943
rfemur -25.4253 5.517 22.2284
rtibia 29.0233
rfoot -4.19937 -4.1669
rtoes 0.328264
lfemur 13.9574 -5.09011 -24.1608
ltibia 33.7796
lfoot -1.76121 -10.8442
ltoes -26.8657
